<?xml version="1.0" encoding="UTF-8"?>
<!DOCTYPE svg PUBLIC "-//W3C//DTD SVG 1.1//EN" "http://www.w3.org/Graphics/SVG/1.1/DTD/svg11.dtd">
<!-- Creator: CorelDRAW X7 -->
<svg xmlns="http://www.w3.org/2000/svg" xml:space="preserve" width="800px" height="400px" version="1.1" style="shape-rendering:geometricPrecision; text-rendering:geometricPrecision; image-rendering:optimizeQuality; fill-rule:evenodd; clip-rule:evenodd"
viewBox="0 0 800 400"
 xmlns:xlink="http://www.w3.org/1999/xlink">
 <defs>
  <style type="text/css">
   <![CDATA[
    .str17 {stroke:#03D6C9;stroke-width:3.00001}
    .str90 {stroke:#0861A6;stroke-width:3.00001}
    .str18 {stroke:#08B2F7;stroke-width:3.00001}
    .str85 {stroke:#0D85BF;stroke-width:3.00001}
    .str65 {stroke:#0DD6A1;stroke-width:3.00001}
    .str75 {stroke:#0DEBE8;stroke-width:3.00001}
    .str5 {stroke:#173308;stroke-width:3.00001}
    .str63 {stroke:#177AC9;stroke-width:3.00001}
    .str20 {stroke:#1C1A7D;stroke-width:3.00001}
    .str88 {stroke:#1C1AC4;stroke-width:3.00001}
    .str87 {stroke:#2114C9;stroke-width:3.00001}
    .str83 {stroke:#21C2B5;stroke-width:3.00001}
    .str6 {stroke:#262ECF;stroke-width:3.00001}
    .str8 {stroke:#26427D;stroke-width:3.00001}
    .str40 {stroke:#2680A6;stroke-width:3.00001}
    .str12 {stroke:#26DB17;stroke-width:3.00001}
    .str92 {stroke:#26E52B;stroke-width:3.00001}
    .str43 {stroke:#2B29AB;stroke-width:3.00001}
    .str78 {stroke:#306B21;stroke-width:3.00001}
    .str1 {stroke:#369959;stroke-width:3.00001}
    .str82 {stroke:#3B4DCF;stroke-width:3.00001}
    .str72 {stroke:#3B61D9;stroke-width:3.00001}
    .str33 {stroke:#404759;stroke-width:3.00001}
    .str57 {stroke:#40998C;stroke-width:3.00001}
    .str0 {stroke:#451A17;stroke-width:3.00001}
    .str42 {stroke:#45D103;stroke-width:3.00001}
    .str44 {stroke:#45D1F7;stroke-width:3.00001}
    .str11 {stroke:#4A1F26;stroke-width:3.00001}
    .str47 {stroke:#4A3D59;stroke-width:3.00001}
    .str23 {stroke:#4AB8F2;stroke-width:3.00001}
    .str10 {stroke:#4F4287;stroke-width:3.00001}
    .str79 {stroke:#540A63;stroke-width:3.00001}
    .str37 {stroke:#54AD30;stroke-width:3.00001}
    .str25 {stroke:#54B8FC;stroke-width:3.00001}
    .str70 {stroke:#590554;stroke-width:3.00001}
    .str46 {stroke:#59A854;stroke-width:3.00001}
    .str22 {stroke:#59B2C4;stroke-width:3.00001}
    .str31 {stroke:#5E7AAB;stroke-width:3.00001}
    .str52 {stroke:#6375BA;stroke-width:3.00001}
    .str51 {stroke:#6929FC;stroke-width:3.00001}
    .str81 {stroke:#69331C;stroke-width:3.00001}
    .str15 {stroke:#73668C;stroke-width:3.00001}
    .str36 {stroke:#78E573;stroke-width:3.00001}
    .str55 {stroke:#7D1482;stroke-width:3.00001}
    .str45 {stroke:#7DF58C;stroke-width:3.00001}
    .str66 {stroke:#828A5E;stroke-width:3.00001}
    .str38 {stroke:#82DB9C;stroke-width:3.00001}
    .str61 {stroke:#871459;stroke-width:3.00001}
    .str13 {stroke:#87B808;stroke-width:3.00001}
    .str26 {stroke:#8C1AB0;stroke-width:3.00001}
    .str35 {stroke:#910AE8;stroke-width:3.00001}
    .str73 {stroke:#918F78;stroke-width:3.00001}
    .str76 {stroke:#96050D;stroke-width:3.00001}
    .str86 {stroke:#960F40;stroke-width:3.00001}
    .str80 {stroke:#960FBA;stroke-width:3.00001}
    .str53 {stroke:#9CEB6E;stroke-width:3.00001}
    .str50 {stroke:#A1575E;stroke-width:3.00001}
    .str24 {stroke:#A16B87;stroke-width:3.00001}
    .str54 {stroke:#A1FAD9;stroke-width:3.00001}
    .str7 {stroke:#A63DBF;stroke-width:3.00001}
    .str64 {stroke:#AB38BA;stroke-width:3.00001}
    .str32 {stroke:#AB7536;stroke-width:3.00001}
    .str3 {stroke:#B0A38C;stroke-width:3.00001}
    .str30 {stroke:#B56BCF;stroke-width:3.00001}
    .str16 {stroke:#B580ED;stroke-width:3.00001}
    .str56 {stroke:#B5E5E3;stroke-width:3.00001}
    .str77 {stroke:#BA1412;stroke-width:3.00001}
    .str19 {stroke:#BA853B;stroke-width:3.00001}
    .str69 {stroke:#BAEB63;stroke-width:3.00001}
    .str14 {stroke:#BF387D;stroke-width:3.00001}
    .str74 {stroke:#BF38BA;stroke-width:3.00001}
    .str68 {stroke:#BF8AA6;stroke-width:3.00001}
    .str39 {stroke:#C47A82;stroke-width:3.00001}
    .str9 {stroke:#C4CC12;stroke-width:3.00001}
    .str34 {stroke:#D46B91;stroke-width:3.00001}
    .str28 {stroke:#D4BDC4;stroke-width:3.00001}
    .str49 {stroke:#D95C82;stroke-width:3.00001}
    .str59 {stroke:#D97030;stroke-width:3.00001}
    .str89 {stroke:#D970F2;stroke-width:3.00001}
    .str2 {stroke:#DE387D;stroke-width:3.00001}
    .str4 {stroke:#DEBD21;stroke-width:3.00001}
    .str84 {stroke:#DEBD91;stroke-width:3.00001}
    .str21 {stroke:#E30A78;stroke-width:3.00001}
    .str41 {stroke:#E370D4;stroke-width:3.00001}
    .str48 {stroke:#E82E36;stroke-width:3.00001}
    .str60 {stroke:#E85773;stroke-width:3.00001}
    .str71 {stroke:#ED1445;stroke-width:3.00001}
    .str91 {stroke:#ED99E8;stroke-width:3.00001}
    .str29 {stroke:#EDC245;stroke-width:3.00001}
    .str58 {stroke:#F2FA54;stroke-width:3.00001}
    .str27 {stroke:#F70A63;stroke-width:3.00001}
    .str67 {stroke:#F7E0FC;stroke-width:3.00001}
    .str62 {stroke:#FC0F87;stroke-width:3.00001}
    .fil0 {fill:none}
    .fil1 {fill:white}
   ]]>
  </style>
    <clipPath id="id0">
     <path d="M1 2l817 0 0 402 -817 0 0 -402z"/>
    </clipPath>
    <clipPath id="id1">
     <path d="M1 2l817 0 0 402 -817 0 0 -402z"/>
    </clipPath>
    <clipPath id="id2">
     <path d="M1 2l817 0 0 402 -817 0 0 -402z"/>
    </clipPath>
 </defs>
 <g id="Layer_x0020_1">
  <metadata id="CorelCorpID_0Corel-Layer"/>
  <g>
   <g style="clip-path:url(#id0)">
   </g>
   <g style="clip-path:url(#id1)">
    <path class="fil0 str0" d="M378 244l0 0c0,-13 -10,-23 -22,-23 -13,0 -23,10 -23,23 0,12 10,22 23,22 12,0 22,-10 22,-22"/>
    <path id="1" class="fil1" d="M378 244l0 0c0,-13 -10,-23 -22,-23 -13,0 -23,10 -23,23 0,12 10,22 23,22 12,0 22,-10 22,-22z"/>
    <path id="2" class="fil0 str1" d="M338 359l0 0c0,-2 -1,-4 -3,-4 -2,0 -3,2 -3,4 0,1 1,3 3,3 2,0 3,-2 3,-3"/>
    <path id="3" class="fil1" d="M338 359l0 0c0,-2 -1,-4 -3,-4 -2,0 -3,2 -3,4 0,1 1,3 3,3 2,0 3,-2 3,-3z"/>
    <path id="4" class="fil0 str2" d="M529 239l0 0c0,-4 -3,-7 -7,-7 -3,0 -6,3 -6,7 0,3 3,6 6,6 4,0 7,-3 7,-6"/>
    <path id="5" class="fil1" d="M529 239l0 0c0,-4 -3,-7 -7,-7 -3,0 -6,3 -6,7 0,3 3,6 6,6 4,0 7,-3 7,-6z"/>
    <path id="6" class="fil0 str3" d="M765 52l0 0c0,-25 -20,-45 -45,-45 -25,0 -45,20 -45,45 0,25 20,45 45,45 25,0 45,-20 45,-45"/>
    <path id="7" class="fil1" d="M765 52l0 0c0,-25 -20,-45 -45,-45 -25,0 -45,20 -45,45 0,25 20,45 45,45 25,0 45,-20 45,-45z"/>
    <path id="8" class="fil0 str4" d="M265 66l0 0c0,-2 -2,-4 -5,-4 -3,-1 -5,2 -5,4 0,3 2,5 5,5 3,0 5,-2 5,-5"/>
    <path id="9" class="fil1" d="M265 66l0 0c0,-2 -2,-4 -5,-4 -3,-1 -5,2 -5,4 0,3 2,5 5,5 3,0 5,-2 5,-5z"/>
    <path id="10" class="fil0 str5" d="M311 210l0 0c0,-3 -2,-5 -5,-5 -2,0 -4,2 -4,5 0,2 2,4 4,4 3,0 5,-2 5,-4"/>
    <path id="11" class="fil1" d="M311 210l0 0c0,-3 -2,-5 -5,-5 -2,0 -4,2 -4,5 0,2 2,4 4,4 3,0 5,-2 5,-4z"/>
    <path id="12" class="fil0 str6" d="M293 1l0 0c0,-2 -2,-4 -4,-4 -3,0 -5,2 -5,4 0,3 2,5 5,5 2,0 4,-2 4,-5"/>
    <path id="13" class="fil1" d="M293 1l0 0c0,-2 -2,-4 -4,-4 -3,0 -5,2 -5,4 0,3 2,5 5,5 2,0 4,-2 4,-5z"/>
    <path id="14" class="fil0 str7" d="M371 160l0 0c0,-5 -4,-9 -9,-9 -4,0 -9,4 -9,9 0,5 5,9 9,9 5,0 9,-4 9,-9"/>
    <path id="15" class="fil1" d="M371 160l0 0c0,-5 -4,-9 -9,-9 -4,0 -9,4 -9,9 0,5 5,9 9,9 5,0 9,-4 9,-9z"/>
    <path id="16" class="fil0 str8" d="M207 92l0 0c0,-1 -1,-3 -3,-3 -1,0 -3,2 -3,3 0,2 2,3 3,3 2,0 3,-1 3,-3"/>
    <path id="17" class="fil1" d="M207 92l0 0c0,-1 -1,-3 -3,-3 -1,0 -3,2 -3,3 0,2 2,3 3,3 2,0 3,-1 3,-3z"/>
    <path id="18" class="fil0 str9" d="M374 238l0 0c0,-4 -3,-7 -7,-7 -4,0 -8,3 -8,7 0,4 4,8 8,8 4,0 7,-4 7,-8"/>
    <path id="19" class="fil1" d="M374 238l0 0c0,-4 -3,-7 -7,-7 -4,0 -8,3 -8,7 0,4 4,8 8,8 4,0 7,-4 7,-8z"/>
    <path id="20" class="fil0 str10" d="M106 13l0 0c0,-2 -2,-4 -4,-4 -2,0 -4,2 -4,4 0,2 2,4 4,4 2,0 4,-2 4,-4"/>
    <path id="21" class="fil1" d="M106 13l0 0c0,-2 -2,-4 -4,-4 -2,0 -4,2 -4,4 0,2 2,4 4,4 2,0 4,-2 4,-4z"/>
    <path id="22" class="fil0 str11" d="M63 111l0 0c0,-2 -2,-4 -4,-4 -2,0 -4,2 -4,4 0,2 2,4 4,4 2,0 4,-2 4,-4"/>
    <path id="23" class="fil1" d="M63 111l0 0c0,-2 -2,-4 -4,-4 -2,0 -4,2 -4,4 0,2 2,4 4,4 2,0 4,-2 4,-4z"/>
    <path id="24" class="fil0 str12" d="M590 256l0 0c0,-2 -1,-4 -3,-4 -2,0 -3,2 -3,4 0,1 1,3 3,3 2,0 3,-2 3,-3"/>
    <path id="25" class="fil1" d="M590 256l0 0c0,-2 -1,-4 -3,-4 -2,0 -3,2 -3,4 0,1 1,3 3,3 2,0 3,-2 3,-3z"/>
    <path id="26" class="fil0 str13" d="M535 323l0 0c0,-3 -3,-6 -6,-6 -3,0 -6,3 -6,6 0,3 3,5 6,5 3,0 6,-2 6,-5"/>
    <path id="27" class="fil1" d="M535 323l0 0c0,-3 -3,-6 -6,-6 -3,0 -6,3 -6,6 0,3 3,5 6,5 3,0 6,-2 6,-5z"/>
    <path id="28" class="fil0 str14" d="M240 197l0 0c0,-2 -2,-3 -4,-3 -2,0 -3,1 -3,3 0,2 1,4 3,4 2,0 4,-2 4,-4"/>
    <path id="29" class="fil1" d="M240 197l0 0c0,-2 -2,-3 -4,-3 -2,0 -3,1 -3,3 0,2 1,4 3,4 2,0 4,-2 4,-4z"/>
    <path id="30" class="fil0 str15" d="M184 297l0 0c0,-13 -10,-23 -23,-23 -12,0 -22,10 -22,23 0,12 10,22 22,22 13,0 23,-10 23,-22"/>
    <path id="31" class="fil1" d="M184 297l0 0c0,-13 -10,-23 -23,-23 -12,0 -22,10 -22,23 0,12 10,22 22,22 13,0 23,-10 23,-22z"/>
    <path id="32" class="fil0 str16" d="M537 102l0 0c0,-4 -3,-7 -7,-7 -3,0 -6,3 -6,7 0,3 3,6 6,6 4,0 7,-3 7,-6"/>
    <path id="33" class="fil1" d="M537 102l0 0c0,-4 -3,-7 -7,-7 -3,0 -6,3 -6,7 0,3 3,6 6,6 4,0 7,-3 7,-6z"/>
    <path id="34" class="fil0 str17" d="M799 153l0 0c0,-6 -5,-11 -11,-11 -6,0 -11,5 -11,11 0,7 5,12 11,12 6,0 11,-5 11,-12"/>
    <path id="35" class="fil1" d="M799 153l0 0c0,-6 -5,-11 -11,-11 -6,0 -11,5 -11,11 0,7 5,12 11,12 6,0 11,-5 11,-12z"/>
    <path id="36" class="fil0 str18" d="M83 118l0 0c0,-25 -21,-45 -45,-45 -25,0 -45,20 -45,45 0,25 20,45 45,45 24,0 45,-20 45,-45"/>
    <path id="37" class="fil1" d="M83 118l0 0c0,-25 -21,-45 -45,-45 -25,0 -45,20 -45,45 0,25 20,45 45,45 24,0 45,-20 45,-45z"/>
    <path id="38" class="fil0 str19" d="M161 286l0 0c0,-5 -3,-8 -7,-8 -4,0 -8,3 -8,8 0,4 4,7 8,7 4,0 7,-3 7,-7"/>
    <path id="39" class="fil1" d="M161 286l0 0c0,-5 -3,-8 -7,-8 -4,0 -8,3 -8,8 0,4 4,7 8,7 4,0 7,-3 7,-7z"/>
    <path id="40" class="fil0 str20" d="M683 65l0 0c0,-3 -2,-6 -5,-6 -3,0 -6,3 -6,6 0,3 3,5 6,5 3,0 5,-2 5,-5"/>
    <path id="41" class="fil1" d="M683 65l0 0c0,-3 -2,-6 -5,-6 -3,0 -6,3 -6,6 0,3 3,5 6,5 3,0 5,-2 5,-5z"/>
    <path id="42" class="fil0 str21" d="M441 341l0 0c0,-1 -2,-3 -3,-3 -2,0 -3,2 -3,3 0,2 1,3 3,3 1,0 3,-1 3,-3"/>
    <path id="43" class="fil1" d="M441 341l0 0c0,-1 -2,-3 -3,-3 -2,0 -3,2 -3,3 0,2 1,3 3,3 1,0 3,-1 3,-3z"/>
    <path id="44" class="fil0 str22" d="M642 192l0 0c0,-2 -2,-4 -4,-4 -3,0 -4,2 -4,4 0,3 1,5 4,5 2,0 4,-2 4,-5"/>
    <path id="45" class="fil1" d="M642 192l0 0c0,-2 -2,-4 -4,-4 -3,0 -4,2 -4,4 0,3 1,5 4,5 2,0 4,-2 4,-5z"/>
    <path id="46" class="fil0 str23" d="M382 313l0 0c0,-3 -2,-5 -5,-5 -2,0 -4,2 -4,5 0,2 2,4 4,4 3,0 5,-2 5,-4"/>
    <path id="47" class="fil1" d="M382 313l0 0c0,-3 -2,-5 -5,-5 -2,0 -4,2 -4,5 0,2 2,4 4,4 3,0 5,-2 5,-4z"/>
    <path id="48" class="fil0 str24" d="M153 238l0 0c0,-9 -6,-15 -15,-15 -8,0 -15,6 -15,15 0,8 7,15 15,15 9,0 15,-7 15,-15"/>
    <path id="49" class="fil1" d="M153 238l0 0c0,-9 -6,-15 -15,-15 -8,0 -15,6 -15,15 0,8 7,15 15,15 9,0 15,-7 15,-15z"/>
    <path id="50" class="fil0 str25" d="M473 287l0 0c0,-25 -21,-45 -45,-45 -25,0 -45,20 -45,45 0,25 20,45 45,45 24,0 45,-20 45,-45"/>
    <path id="51" class="fil1" d="M473 287l0 0c0,-25 -21,-45 -45,-45 -25,0 -45,20 -45,45 0,25 20,45 45,45 24,0 45,-20 45,-45z"/>
    <path id="52" class="fil0 str26" d="M233 72l0 0c0,-4 -3,-7 -7,-7 -4,0 -8,3 -8,7 0,5 4,8 8,8 4,0 7,-3 7,-8"/>
    <path id="53" class="fil1" d="M233 72l0 0c0,-4 -3,-7 -7,-7 -4,0 -8,3 -8,7 0,5 4,8 8,8 4,0 7,-3 7,-8z"/>
    <path id="54" class="fil0 str27" d="M227 114l0 0c0,-2 -2,-4 -4,-4 -3,0 -4,2 -4,4 0,2 1,4 4,4 2,0 4,-2 4,-4"/>
    <path id="55" class="fil1" d="M227 114l0 0c0,-2 -2,-4 -4,-4 -3,0 -4,2 -4,4 0,2 1,4 4,4 2,0 4,-2 4,-4z"/>
    <path id="56" class="fil0 str28" d="M508 163l0 0c0,-2 -1,-4 -4,-4 -2,0 -4,2 -4,4 0,2 2,4 4,4 3,0 4,-2 4,-4"/>
    <path id="57" class="fil1" d="M508 163l0 0c0,-2 -1,-4 -4,-4 -2,0 -4,2 -4,4 0,2 2,4 4,4 3,0 4,-2 4,-4z"/>
    <path id="58" class="fil0 str29" d="M216 16l0 0c0,-2 -2,-3 -4,-3 -2,0 -3,1 -3,3 0,2 1,4 3,4 2,0 4,-2 4,-4"/>
    <path id="59" class="fil1" d="M216 16l0 0c0,-2 -2,-3 -4,-3 -2,0 -3,1 -3,3 0,2 1,4 3,4 2,0 4,-2 4,-4z"/>
    <path id="60" class="fil0 str30" d="M457 78l0 0c0,-6 -5,-11 -11,-11 -7,0 -12,5 -12,11 0,6 5,11 12,11 6,0 11,-5 11,-11"/>
    <path id="61" class="fil1" d="M457 78l0 0c0,-6 -5,-11 -11,-11 -7,0 -12,5 -12,11 0,6 5,11 12,11 6,0 11,-5 11,-11z"/>
    <path id="62" class="fil0 str31" d="M600 70l0 0c0,-2 -3,-4 -5,-4 -2,0 -4,2 -4,4 0,3 2,5 4,5 2,0 5,-2 5,-5"/>
    <path id="63" class="fil1" d="M600 70l0 0c0,-2 -3,-4 -5,-4 -2,0 -4,2 -4,4 0,3 2,5 4,5 2,0 5,-2 5,-5z"/>
    <path id="64" class="fil0 str32" d="M460 280l0 0c0,-3 -3,-6 -7,-6 -3,0 -6,3 -6,6 0,4 3,7 6,7 4,0 7,-3 7,-7"/>
    <path id="65" class="fil1" d="M460 280l0 0c0,-3 -3,-6 -7,-6 -3,0 -6,3 -6,6 0,4 3,7 6,7 4,0 7,-3 7,-7z"/>
    <path id="66" class="fil0 str33" d="M295 227l0 0c0,-5 -4,-9 -9,-9 -5,0 -9,4 -9,9 0,5 4,9 9,9 5,0 9,-4 9,-9"/>
    <path id="67" class="fil1" d="M295 227l0 0c0,-5 -4,-9 -9,-9 -5,0 -9,4 -9,9 0,5 4,9 9,9 5,0 9,-4 9,-9z"/>
    <path id="68" class="fil0 str34" d="M792 297l0 0c0,-13 -10,-23 -22,-23 -13,0 -23,10 -23,23 0,12 10,22 23,22 12,0 22,-10 22,-22"/>
    <path id="69" class="fil1" d="M792 297l0 0c0,-13 -10,-23 -22,-23 -13,0 -23,10 -23,23 0,12 10,22 23,22 12,0 22,-10 22,-22z"/>
    <path id="70" class="fil0 str35" d="M9 14l0 0c0,-7 -5,-12 -12,-12 -6,0 -11,5 -11,12 0,6 5,11 11,11 7,0 12,-5 12,-11"/>
    <path id="71" class="fil1" d="M9 14l0 0c0,-7 -5,-12 -12,-12 -6,0 -11,5 -11,12 0,6 5,11 11,11 7,0 12,-5 12,-11z"/>
    <path id="72" class="fil0 str36" d="M277 141l0 0c0,-3 -2,-5 -5,-5 -2,0 -4,2 -4,5 0,2 2,4 4,4 3,0 5,-2 5,-4"/>
    <path id="73" class="fil1" d="M277 141l0 0c0,-3 -2,-5 -5,-5 -2,0 -4,2 -4,5 0,2 2,4 4,4 3,0 5,-2 5,-4z"/>
    <path id="74" class="fil0 str37" d="M696 345l0 0c0,-2 -1,-4 -3,-4 -2,0 -4,2 -4,4 0,2 2,3 4,3 2,0 3,-1 3,-3"/>
    <path id="75" class="fil1" d="M696 345l0 0c0,-2 -1,-4 -3,-4 -2,0 -4,2 -4,4 0,2 2,3 4,3 2,0 3,-1 3,-3z"/>
    <path id="76" class="fil0 str38" d="M673 35l0 0c0,-2 -2,-3 -4,-3 -2,0 -3,1 -3,3 0,2 1,4 3,4 2,0 4,-2 4,-4"/>
    <path id="77" class="fil1" d="M673 35l0 0c0,-2 -2,-3 -4,-3 -2,0 -3,1 -3,3 0,2 1,4 3,4 2,0 4,-2 4,-4z"/>
    <path id="78" class="fil0 str39" d="M463 112l0 0c0,-2 -2,-4 -4,-4 -2,0 -4,2 -4,4 0,2 2,4 4,4 2,0 4,-2 4,-4"/>
    <path id="79" class="fil1" d="M463 112l0 0c0,-2 -2,-4 -4,-4 -2,0 -4,2 -4,4 0,2 2,4 4,4 2,0 4,-2 4,-4z"/>
    <path id="80" class="fil0 str40" d="M388 1l0 0c0,-6 -5,-11 -12,-11 -6,0 -11,5 -11,11 0,6 5,11 11,11 7,0 12,-5 12,-11"/>
    <path id="81" class="fil1" d="M388 1l0 0c0,-6 -5,-11 -12,-11 -6,0 -11,5 -11,11 0,6 5,11 11,11 7,0 12,-5 12,-11z"/>
    <path id="82" class="fil0 str41" d="M808 114l0 0c0,-25 -20,-45 -45,-45 -25,0 -45,20 -45,45 0,25 20,45 45,45 25,0 45,-20 45,-45"/>
    <path id="83" class="fil1" d="M808 114l0 0c0,-25 -20,-45 -45,-45 -25,0 -45,20 -45,45 0,25 20,45 45,45 25,0 45,-20 45,-45z"/>
    <path id="84" class="fil0 str42" d="M746 83l0 0c0,-3 -2,-6 -5,-6 -3,0 -6,3 -6,6 0,3 3,5 6,5 3,0 5,-2 5,-5"/>
    <path id="85" class="fil1" d="M746 83l0 0c0,-3 -2,-6 -5,-6 -3,0 -6,3 -6,6 0,3 3,5 6,5 3,0 5,-2 5,-5z"/>
    <path id="86" class="fil0 str43" d="M704 389l0 0c0,-2 -2,-3 -4,-3 -2,0 -3,1 -3,3 0,2 1,4 3,4 2,0 4,-2 4,-4"/>
    <path id="87" class="fil1" d="M704 389l0 0c0,-2 -2,-3 -4,-3 -2,0 -3,1 -3,3 0,2 1,4 3,4 2,0 4,-2 4,-4z"/>
    <path id="88" class="fil0 str44" d="M692 239l0 0c0,-4 -4,-7 -8,-7 -4,0 -7,3 -7,7 0,4 3,8 7,8 4,0 8,-4 8,-8"/>
    <path id="89" class="fil1" d="M692 239l0 0c0,-4 -4,-7 -8,-7 -4,0 -7,3 -7,7 0,4 3,8 7,8 4,0 8,-4 8,-8z"/>
    <path id="90" class="fil0 str45" d="M21 70l0 0c0,-4 -4,-7 -8,-7 -4,0 -7,3 -7,7 0,4 3,8 7,8 4,0 8,-4 8,-8"/>
    <path id="91" class="fil1" d="M21 70l0 0c0,-4 -4,-7 -8,-7 -4,0 -7,3 -7,7 0,4 3,8 7,8 4,0 8,-4 8,-8z"/>
    <path id="92" class="fil0 str46" d="M308 20l0 0c0,-2 -2,-4 -4,-4 -2,0 -3,2 -3,4 0,2 1,3 3,3 2,0 4,-1 4,-3"/>
    <path id="93" class="fil1" d="M308 20l0 0c0,-2 -2,-4 -4,-4 -2,0 -3,2 -3,4 0,2 1,3 3,3 2,0 4,-1 4,-3z"/>
    <path id="94" class="fil0 str47" d="M312 363l0 0c0,-2 -2,-4 -4,-4 -1,0 -3,2 -3,4 0,2 2,3 3,3 2,0 4,-1 4,-3"/>
    <path id="95" class="fil1" d="M312 363l0 0c0,-2 -2,-4 -4,-4 -1,0 -3,2 -3,4 0,2 2,3 3,3 2,0 4,-1 4,-3z"/>
    <path id="96" class="fil0 str48" d="M458 317l0 0c0,-2 -2,-4 -4,-4 -1,0 -3,2 -3,4 0,1 2,3 3,3 2,0 4,-2 4,-3"/>
    <path id="97" class="fil1" d="M458 317l0 0c0,-2 -2,-4 -4,-4 -1,0 -3,2 -3,4 0,1 2,3 3,3 2,0 4,-2 4,-3z"/>
    <path id="98" class="fil0 str49" d="M393 337l0 0c0,-3 -3,-5 -5,-5 -3,0 -5,2 -5,5 0,3 2,5 5,5 2,0 5,-2 5,-5"/>
    <path id="99" class="fil1" d="M393 337l0 0c0,-3 -3,-5 -5,-5 -3,0 -5,2 -5,5 0,3 2,5 5,5 2,0 5,-2 5,-5z"/>
    <path id="100" class="fil0 str50" d="M701 51l0 0c0,-8 -7,-15 -15,-15 -8,0 -15,7 -15,15 0,9 7,15 15,15 8,0 15,-6 15,-15"/>
    <path id="101" class="fil1" d="M701 51l0 0c0,-8 -7,-15 -15,-15 -8,0 -15,7 -15,15 0,9 7,15 15,15 8,0 15,-6 15,-15z"/>
    <path id="102" class="fil0 str51" d="M773 176l0 0c0,-25 -21,-45 -45,-45 -25,0 -45,20 -45,45 0,25 20,45 45,45 24,0 45,-20 45,-45"/>
    <path id="103" class="fil1" d="M773 176l0 0c0,-25 -21,-45 -45,-45 -25,0 -45,20 -45,45 0,25 20,45 45,45 24,0 45,-20 45,-45z"/>
    <path id="104" class="fil0 str52" d="M564 295l0 0c0,-25 -20,-45 -45,-45 -25,0 -45,20 -45,45 0,25 20,45 45,45 25,0 45,-20 45,-45"/>
    <path id="105" class="fil1" d="M564 295l0 0c0,-25 -20,-45 -45,-45 -25,0 -45,20 -45,45 0,25 20,45 45,45 25,0 45,-20 45,-45z"/>
    <path id="106" class="fil0 str53" d="M126 265l0 0c0,-3 -2,-5 -4,-5 -3,0 -5,2 -5,5 0,2 2,4 5,4 2,0 4,-2 4,-4"/>
    <path id="107" class="fil1" d="M126 265l0 0c0,-3 -2,-5 -4,-5 -3,0 -5,2 -5,5 0,2 2,4 5,4 2,0 4,-2 4,-4z"/>
    <path id="108" class="fil0 str54" d="M26 259l0 0c0,-2 -2,-4 -4,-4 -2,0 -4,2 -4,4 0,2 2,4 4,4 2,0 4,-2 4,-4"/>
    <path id="109" class="fil1" d="M26 259l0 0c0,-2 -2,-4 -4,-4 -2,0 -4,2 -4,4 0,2 2,4 4,4 2,0 4,-2 4,-4z"/>
    <path id="110" class="fil0 str55" d="M753 137l0 0c0,-9 -7,-15 -15,-15 -9,0 -15,6 -15,15 0,8 6,15 15,15 8,0 15,-7 15,-15"/>
    <path id="111" class="fil1" d="M753 137l0 0c0,-9 -7,-15 -15,-15 -9,0 -15,6 -15,15 0,8 6,15 15,15 8,0 15,-7 15,-15z"/>
    <path id="112" class="fil0 str56" d="M451 273l0 0c0,-2 -1,-4 -3,-4 -2,0 -4,2 -4,4 0,2 2,3 4,3 2,0 3,-1 3,-3"/>
    <path id="113" class="fil1" d="M451 273l0 0c0,-2 -1,-4 -3,-4 -2,0 -4,2 -4,4 0,2 2,3 4,3 2,0 3,-1 3,-3z"/>
    <path id="114" class="fil0 str57" d="M482 225l0 0c0,-3 -3,-6 -6,-6 -3,0 -5,3 -5,6 0,3 2,6 5,6 3,0 6,-3 6,-6"/>
    <path id="115" class="fil1" d="M482 225l0 0c0,-3 -3,-6 -6,-6 -3,0 -5,3 -5,6 0,3 2,6 5,6 3,0 6,-3 6,-6z"/>
    <path id="116" class="fil0 str58" d="M213 41l0 0c0,-3 -2,-5 -5,-5 -2,0 -4,2 -4,5 0,2 2,4 4,4 3,0 5,-2 5,-4"/>
    <path id="117" class="fil1" d="M213 41l0 0c0,-3 -2,-5 -5,-5 -2,0 -4,2 -4,5 0,2 2,4 4,4 3,0 5,-2 5,-4z"/>
    <path id="118" class="fil0 str59" d="M546 360l0 0c0,-6 -5,-11 -12,-11 -6,0 -11,5 -11,11 0,6 5,11 11,11 7,0 12,-5 12,-11"/>
    <path id="119" class="fil1" d="M546 360l0 0c0,-6 -5,-11 -12,-11 -6,0 -11,5 -11,11 0,6 5,11 11,11 7,0 12,-5 12,-11z"/>
    <path id="120" class="fil0 str60" d="M451 407l0 0c0,-2 -2,-3 -4,-3 -2,0 -4,1 -4,3 0,2 2,4 4,4 2,0 4,-2 4,-4"/>
    <path id="121" class="fil1" d="M451 407l0 0c0,-2 -2,-3 -4,-3 -2,0 -4,1 -4,3 0,2 2,4 4,4 2,0 4,-2 4,-4z"/>
    <path id="122" class="fil0 str61" d="M474 337l0 0c0,-3 -3,-5 -5,-5 -3,-1 -5,2 -5,5 0,2 2,4 5,4 2,0 5,-2 5,-4"/>
    <path id="123" class="fil1" d="M474 337l0 0c0,-3 -3,-5 -5,-5 -3,-1 -5,2 -5,5 0,2 2,4 5,4 2,0 5,-2 5,-4z"/>
    <path id="124" class="fil0 str62" d="M262 203l0 0c0,-25 -20,-45 -45,-45 -25,0 -45,20 -45,45 0,25 20,45 45,45 25,0 45,-20 45,-45"/>
    <path id="125" class="fil1" d="M262 203l0 0c0,-25 -20,-45 -45,-45 -25,0 -45,20 -45,45 0,25 20,45 45,45 25,0 45,-20 45,-45z"/>
    <path id="126" class="fil0 str63" d="M544 113l0 0c0,-5 -4,-9 -9,-9 -5,0 -9,4 -9,9 0,5 4,9 9,9 5,0 9,-4 9,-9"/>
    <path id="127" class="fil1" d="M544 113l0 0c0,-5 -4,-9 -9,-9 -5,0 -9,4 -9,9 0,5 4,9 9,9 5,0 9,-4 9,-9z"/>
    <path id="128" class="fil0 str64" d="M688 1l0 0c0,-4 -4,-7 -8,-7 -4,0 -7,3 -7,7 0,4 3,8 7,8 4,0 8,-4 8,-8"/>
    <path id="129" class="fil1" d="M688 1l0 0c0,-4 -4,-7 -8,-7 -4,0 -7,3 -7,7 0,4 3,8 7,8 4,0 8,-4 8,-8z"/>
    <path id="130" class="fil0 str65" d="M693 26l0 0c0,-4 -3,-7 -7,-7 -5,0 -8,3 -8,7 0,4 3,8 8,8 4,0 7,-4 7,-8"/>
    <path id="131" class="fil1" d="M693 26l0 0c0,-4 -3,-7 -7,-7 -5,0 -8,3 -8,7 0,4 3,8 8,8 4,0 7,-4 7,-8z"/>
    <path id="132" class="fil0 str66" d="M598 95l0 0c0,-2 -2,-3 -4,-3 -2,0 -4,1 -4,3 0,2 2,4 4,4 2,0 4,-2 4,-4"/>
    <path id="133" class="fil1" d="M598 95l0 0c0,-2 -2,-3 -4,-3 -2,0 -4,1 -4,3 0,2 2,4 4,4 2,0 4,-2 4,-4z"/>
    <path id="134" class="fil0 str67" d="M316 393l0 0c0,-3 -2,-5 -5,-5 -2,0 -4,2 -4,5 0,2 2,4 4,4 3,0 5,-2 5,-4"/>
    <path id="135" class="fil1" d="M316 393l0 0c0,-3 -2,-5 -5,-5 -2,0 -4,2 -4,5 0,2 2,4 4,4 3,0 5,-2 5,-4z"/>
    <path id="136" class="fil0 str68" d="M131 290l0 0c0,-2 -3,-5 -6,-5 -2,0 -5,3 -5,5 0,3 3,5 5,5 3,0 5,-2 5,-5"/>
    <path id="137" class="fil1" d="M131 290l0 0c0,-2 -3,-5 -6,-5 -2,0 -5,3 -5,5 0,3 3,5 5,5 3,0 5,-2 6,-5z"/>
    <path id="138" class="fil0 str69" d="M49 168l0 0c0,-1 -2,-3 -4,-3 -1,0 -3,2 -3,3 0,2 2,4 3,4 2,0 4,-2 4,-4"/>
    <path id="139" class="fil1" d="M49 168l0 0c0,-1 -2,-3 -4,-3 -1,0 -3,2 -3,3 0,2 2,4 3,4 2,0 4,-2 4,-4z"/>
    <path id="140" class="fil0 str70" d="M703 87l0 0c0,-6 -5,-11 -11,-11 -7,0 -12,5 -12,11 0,6 5,11 12,11 6,0 11,-5 11,-11"/>
    <path id="141" class="fil1" d="M703 87l0 0c0,-6 -5,-11 -11,-11 -7,0 -12,5 -12,11 0,6 5,11 12,11 6,0 11,-5 11,-11z"/>
    <path id="142" class="fil0 str71" d="M19 382l0 0c0,-2 -2,-3 -4,-3 -2,0 -3,1 -3,3 0,2 1,4 3,4 2,0 4,-2 4,-4"/>
    <path id="143" class="fil1" d="M19 382l0 0c0,-2 -2,-3 -4,-3 -2,0 -3,1 -3,3 0,2 1,4 3,4 2,0 4,-2 4,-4z"/>
    <path id="144" class="fil0 str72" d="M421 317l0 0c0,-2 -2,-4 -4,-4 -3,0 -5,2 -5,4 0,3 2,4 5,4 2,0 4,-1 4,-4"/>
    <path id="145" class="fil1" d="M421 317l0 0c0,-2 -2,-4 -4,-4 -3,0 -5,2 -5,4 0,3 2,4 5,4 2,0 4,-1 4,-4z"/>
    <path id="146" class="fil0 str73" d="M721 14l0 0c0,-7 -5,-12 -12,-12 -6,0 -11,5 -11,12 0,6 5,11 11,11 7,0 12,-5 12,-11"/>
    <path id="147" class="fil1" d="M721 14l0 0c0,-7 -5,-12 -12,-12 -6,0 -11,5 -11,12 0,6 5,11 11,11 7,0 12,-5 12,-11z"/>
    <path id="148" class="fil0 str74" d="M499 234l0 0c0,-2 -1,-3 -3,-3 -1,0 -3,1 -3,3 0,2 2,3 3,3 2,0 3,-1 3,-3"/>
    <path id="149" class="fil1" d="M499 234l0 0c0,-2 -1,-3 -3,-3 -1,0 -3,1 -3,3 0,2 2,3 3,3 2,0 3,-1 3,-3z"/>
    <path id="150" class="fil0 str75" d="M279 5l0 0c0,-2 -2,-4 -4,-4 -2,0 -3,2 -3,4 0,2 1,3 3,3 2,0 4,-1 4,-3"/>
    <path id="151" class="fil1" d="M279 5l0 0c0,-2 -2,-4 -4,-4 -2,0 -3,2 -3,4 0,2 1,3 3,3 2,0 4,-1 4,-3z"/>
    <path id="152" class="fil0 str76" d="M408 24l0 0c0,-25 -20,-45 -45,-45 -24,0 -45,20 -45,45 0,25 21,45 45,45 25,0 45,-20 45,-45"/>
    <path id="153" class="fil1" d="M408 24l0 0c0,-25 -20,-45 -45,-45 -24,0 -45,20 -45,45 0,25 21,45 45,45 25,0 45,-20 45,-45z"/>
    <path id="154" class="fil0 str77" d="M394 204l0 0c0,-6 -5,-11 -11,-11 -6,0 -11,5 -11,11 0,6 5,11 11,11 6,0 11,-5 11,-11"/>
    <path id="155" class="fil1" d="M394 204l0 0c0,-6 -5,-11 -11,-11 -6,0 -11,5 -11,11 0,6 5,11 11,11 6,0 11,-5 11,-11z"/>
    <path id="156" class="fil0 str78" d="M4 41l0 0c0,-2 -2,-4 -4,-4 -2,0 -3,2 -3,4 0,2 1,3 3,3 2,0 4,-1 4,-3"/>
    <path id="157" class="fil1" d="M4 41l0 0c0,-2 -2,-4 -4,-4 -2,0 -3,2 -3,4 0,2 1,3 3,3 2,0 4,-1 4,-3z"/>
    <path id="158" class="fil0 str79" d="M720 292l0 0c0,-3 -2,-5 -5,-5 -2,0 -4,2 -4,5 0,2 2,4 4,4 3,0 5,-2 5,-4"/>
    <path id="159" class="fil1" d="M720 292l0 0c0,-3 -2,-5 -5,-5 -2,0 -4,2 -4,5 0,2 2,4 4,4 3,0 5,-2 5,-4z"/>
    <path id="160" class="fil0 str80" d="M526 278l0 0c0,-3 -3,-5 -6,-5 -3,0 -6,2 -6,5 0,3 3,6 6,6 3,0 6,-3 6,-6"/>
    <path id="161" class="fil1" d="M526 278l0 0c0,-3 -3,-5 -6,-5 -3,0 -6,2 -6,5 0,3 3,6 6,6 3,0 6,-3 6,-6z"/>
    <path id="162" class="fil0 str81" d="M225 90l0 0c0,-8 -7,-15 -15,-15 -8,0 -15,7 -15,15 0,9 7,15 15,15 8,0 15,-6 15,-15"/>
    <path id="163" class="fil1" d="M225 90l0 0c0,-8 -7,-15 -15,-15 -8,0 -15,7 -15,15 0,9 7,15 15,15 8,0 15,-6 15,-15z"/>
    <path id="164" class="fil0 str82" d="M597 48l0 0c0,-5 -4,-9 -9,-9 -5,0 -9,4 -9,9 0,5 4,9 9,9 5,0 9,-4 9,-9"/>
    <path id="165" class="fil1" d="M597 48l0 0c0,-5 -4,-9 -9,-9 -5,0 -9,4 -9,9 0,5 4,9 9,9 5,0 9,-4 9,-9z"/>
    <path id="166" class="fil0 str83" d="M234 189l0 0c0,-2 -1,-3 -3,-3 -2,0 -3,1 -3,3 0,2 1,3 3,3 2,0 3,-1 3,-3"/>
    <path id="167" class="fil1" d="M234 189l0 0c0,-2 -1,-3 -3,-3 -2,0 -3,1 -3,3 0,2 1,3 3,3 2,0 3,-1 3,-3z"/>
    <path id="168" class="fil0 str84" d="M816 224l0 0c0,-4 -3,-7 -6,-7 -4,0 -7,3 -7,7 0,3 3,6 7,6 3,0 6,-3 6,-6"/>
    <path id="169" class="fil1" d="M816 224l0 0c0,-4 -3,-7 -6,-7 -4,0 -7,3 -7,7 0,3 3,6 7,6 3,0 6,-3 6,-6z"/>
    <path id="170" class="fil0 str85" d="M291 400l0 0c0,-2 -1,-4 -4,-4 -2,0 -3,2 -3,4 0,2 1,4 3,4 3,0 4,-2 4,-4"/>
    <path id="171" class="fil1" d="M291 400l0 0c0,-2 -1,-4 -4,-4 -2,0 -3,2 -3,4 0,2 1,4 3,4 3,0 4,-2 4,-4z"/>
    <path id="172" class="fil0 str86" d="M107 346l0 0c0,-13 -10,-23 -23,-23 -12,0 -22,10 -22,23 0,12 10,22 22,22 13,0 23,-10 23,-22"/>
    <path id="173" class="fil1" d="M107 346l0 0c0,-13 -10,-23 -23,-23 -12,0 -22,10 -22,23 0,12 10,22 22,22 13,0 23,-10 23,-22z"/>
    <path id="174" class="fil0 str87" d="M727 12l0 0c0,-3 -3,-6 -6,-6 -3,0 -5,3 -5,6 0,3 2,6 5,6 3,0 6,-3 6,-6"/>
    <path id="175" class="fil1" d="M727 12l0 0c0,-3 -3,-6 -6,-6 -3,0 -5,3 -5,6 0,3 2,6 5,6 3,0 6,-3 6,-6z"/>
    <path id="176" class="fil0 str88" d="M652 58l0 0c0,-2 -2,-4 -5,-4 -2,0 -4,2 -4,4 0,3 2,5 4,5 3,0 5,-2 5,-5"/>
    <path id="177" class="fil1" d="M652 58l0 0c0,-2 -2,-4 -5,-4 -2,0 -4,2 -4,4 0,3 2,5 4,5 3,0 5,-2 5,-5z"/>
    <path id="178" class="fil0 str89" d="M770 45l0 0c0,-13 -10,-23 -23,-23 -12,0 -22,10 -22,23 0,12 10,22 22,22 13,0 23,-10 23,-22"/>
    <path id="179" class="fil1" d="M770 45l0 0c0,-13 -10,-23 -23,-23 -12,0 -22,10 -22,23 0,12 10,22 22,22 13,0 23,-10 23,-22z"/>
    <path id="180" class="fil0 str90" d="M413 102l0 0c0,-2 -1,-3 -3,-3 -2,0 -3,1 -3,3 0,2 1,3 3,3 2,0 3,-1 3,-3"/>
    <path id="181" class="fil1" d="M413 102l0 0c0,-2 -1,-3 -3,-3 -2,0 -3,1 -3,3 0,2 1,3 3,3 2,0 3,-1 3,-3z"/>
    <path id="182" class="fil0 str91" d="M333 192l0 0c0,-1 -2,-3 -3,-3 -2,0 -3,2 -3,3 0,2 1,3 3,3 1,0 3,-1 3,-3"/>
    <path id="183" class="fil1" d="M333 192l0 0c0,-1 -2,-3 -3,-3 -2,0 -3,2 -3,3 0,2 1,3 3,3 1,0 3,-1 3,-3z"/>
    <path id="184" class="fil0 str92" d="M594 89l0 0c0,-2 -2,-4 -4,-4 -3,0 -5,2 -5,4 0,3 2,5 5,5 2,0 4,-2 4,-5"/>
    <path id="185" class="fil1" d="M594 89l0 0c0,-2 -2,-4 -4,-4 -3,0 -5,2 -5,4 0,3 2,5 5,5 2,0 4,-2 4,-5z"/>
   </g>
   <g style="clip-path:url(#id2)">
   </g>
  </g>
 </g>
</svg>
